<svg id="Layer_1" data-name="Layer 1" xmlns="http://www.w3.org/2000/svg" viewBox="0 0 127 40"><defs><style>.cls-1{fill:#f8cb16;}</style></defs><title>Artboard 1ldpi</title><path class="cls-1" d="M23.2,22.3H5.3V40H0V0H25.9V4.3H5.3V18.1H23.2Z"/><path class="cls-1" d="M37.5,22.7V40H32.1V0H46.3q6.5,0,9.9,3c2.2,1.9,3.4,4.7,3.4,8.4A8.9,8.9,0,0,1,58,16.8a10.6,10.6,0,0,1-4.6,3.6,8.2,8.2,0,0,1,4.7,3.5,12,12,0,0,1,1.4,5.9v3.8a11.1,11.1,0,0,0,.4,3.3,4.8,4.8,0,0,0,1.4,2.5V40H55.8a4.3,4.3,0,0,1-1.3-2.7,23.4,23.4,0,0,1-.3-3.8V29.9a7.4,7.4,0,0,0-1.9-5.2,6.2,6.2,0,0,0-5-2Zm0-4.3h8.3c3,0,5.2-.6,6.5-1.7a6.8,6.8,0,0,0,2-5.3,6.7,6.7,0,0,0-2-5.2c-1.2-1.3-3.2-1.9-6-1.9H37.5Z"/><path class="cls-1" d="M92,21.5H74V35.8H94.7V40h-26V0H94.4V4.3H74V17.2H92Z"/><path class="cls-1" d="M124.3,21.5h-18V35.8H127V40H101V0h25.7V4.3H106.3V17.2h18Z"/></svg>